<?xml version="1.0" standalone="no"?>
<!DOCTYPE svg PUBLIC "-//W3C//DTD SVG 20010904//EN"
 "http://www.w3.org/TR/2001/REC-SVG-20010904/DTD/svg10.dtd">
<svg version="1.0" xmlns="http://www.w3.org/2000/svg"
 width="301.000000pt" height="301.000000pt" viewBox="0 0 301.000000 301.000000"
 preserveAspectRatio="xMidYMid meet">
<metadata>
Created by potrace 1.11, written by Peter Selinger 2001-2013
</metadata>
<g transform="translate(0.000000,301.000000) scale(0.100000,-0.100000)"
fill="#000000" stroke="none">
<path d="M262 2365 c-117 -129 -215 -241 -217 -248 -4 -9 84 -39 297 -103 167
-50 305 -90 306 -88 6 4 -160 674 -167 674 -3 -1 -102 -106 -219 -235z"/>
<path d="M2381 2265 c-46 -185 -81 -338 -79 -339 6 -6 608 179 608 186 0 8
-428 481 -440 486 -4 1 -44 -149 -89 -333z"/>
<path d="M292 1601 c139 -243 256 -441 261 -441 5 0 196 107 425 237 332 189
412 238 396 245 -18 7 -1261 382 -1311 394 -18 5 26 -79 229 -435z"/>
<path d="M2226 1840 c-362 -109 -660 -201 -663 -203 -3 -4 336 -200 799 -461
20 -11 39 -18 41 -16 9 8 485 844 493 863 3 9 2 17 -2 16 -5 0 -305 -90 -668
-199z"/>
<path d="M1130 1414 c-140 -80 -355 -203 -477 -272 l-223 -127 113 -6 c61 -4
205 -7 318 -8 l206 -1 143 248 c79 136 152 262 163 280 10 17 17 32 15 32 -2
0 -118 -66 -258 -146z"/>
<path d="M1576 1529 c11 -19 85 -145 164 -281 l143 -248 211 1 c116 1 259 4
318 8 l107 6 -472 270 c-259 149 -476 272 -481 274 -5 2 -1 -11 10 -30z"/>
<path d="M1145 1017 c-159 -276 -290 -508 -290 -516 0 -14 575 -361 588 -354
4 2 7 312 7 689 0 376 -3 684 -7 684 -5 0 -138 -226 -298 -503z"/>
<path d="M1500 835 c0 -376 4 -686 8 -688 9 -5 585 337 589 350 2 6 -41 86
-95 179 -170 292 -315 544 -403 696 -46 81 -87 148 -92 148 -4 0 -7 -308 -7
-685z"/>
</g>
</svg>
